<mxfile host="app.diagrams.net" agent="Mozilla/5.0 (Windows NT 10.0; Win64; x64) AppleWebKit/537.36 (KHTML, like Gecko) Chrome/135.0.0.0 Safari/537.36" version="26.2.9">
  <diagram name="Page-1" id="RqYlMbVnJzcjmDwBGDS3">
    <mxGraphModel dx="874" dy="473" grid="1" gridSize="10" guides="1" tooltips="1" connect="1" arrows="1" fold="1" page="1" pageScale="1" pageWidth="850" pageHeight="1100" math="0" shadow="0">
      <root>
        <mxCell id="0" />
        <mxCell id="1" parent="0" />
        <mxCell id="WQ6BeDETgpPeZFBW_CiG-1" value="Users" style="rounded=0;whiteSpace=wrap;html=1;" vertex="1" parent="1">
          <mxGeometry x="100" y="40" width="120" height="60" as="geometry" />
        </mxCell>
        <mxCell id="WQ6BeDETgpPeZFBW_CiG-2" value="Ecom" style="ellipse;whiteSpace=wrap;html=1;aspect=fixed;" vertex="1" parent="1">
          <mxGeometry x="290" y="30" width="80" height="80" as="geometry" />
        </mxCell>
        <mxCell id="WQ6BeDETgpPeZFBW_CiG-3" value="EcomDB" style="shape=process;whiteSpace=wrap;html=1;backgroundOutline=1;" vertex="1" parent="1">
          <mxGeometry x="430" y="40" width="120" height="60" as="geometry" />
        </mxCell>
        <mxCell id="WQ6BeDETgpPeZFBW_CiG-4" value="" style="endArrow=classic;html=1;rounded=0;entryX=0;entryY=0.5;entryDx=0;entryDy=0;" edge="1" parent="1" target="WQ6BeDETgpPeZFBW_CiG-2">
          <mxGeometry width="50" height="50" relative="1" as="geometry">
            <mxPoint x="220" y="70" as="sourcePoint" />
            <mxPoint x="270" y="20" as="targetPoint" />
          </mxGeometry>
        </mxCell>
        <mxCell id="WQ6BeDETgpPeZFBW_CiG-5" value="" style="endArrow=classic;html=1;rounded=0;entryX=0;entryY=0.5;entryDx=0;entryDy=0;" edge="1" parent="1" target="WQ6BeDETgpPeZFBW_CiG-3">
          <mxGeometry width="50" height="50" relative="1" as="geometry">
            <mxPoint x="370" y="70" as="sourcePoint" />
            <mxPoint x="420" y="20" as="targetPoint" />
          </mxGeometry>
        </mxCell>
        <mxCell id="WQ6BeDETgpPeZFBW_CiG-6" value="Context level DFD for Ecom" style="text;html=1;align=center;verticalAlign=middle;whiteSpace=wrap;rounded=0;" vertex="1" parent="1">
          <mxGeometry x="210" y="120" width="300" height="30" as="geometry" />
        </mxCell>
        <mxCell id="WQ6BeDETgpPeZFBW_CiG-8" value="Users" style="rounded=0;whiteSpace=wrap;html=1;" vertex="1" parent="1">
          <mxGeometry x="90" y="190" width="120" height="60" as="geometry" />
        </mxCell>
        <mxCell id="WQ6BeDETgpPeZFBW_CiG-9" value="Rgister/login" style="ellipse;whiteSpace=wrap;html=1;aspect=fixed;" vertex="1" parent="1">
          <mxGeometry x="280" y="180" width="80" height="80" as="geometry" />
        </mxCell>
        <mxCell id="WQ6BeDETgpPeZFBW_CiG-10" value="UserTbl" style="shape=process;whiteSpace=wrap;html=1;backgroundOutline=1;" vertex="1" parent="1">
          <mxGeometry x="420" y="190" width="120" height="60" as="geometry" />
        </mxCell>
        <mxCell id="WQ6BeDETgpPeZFBW_CiG-11" value="" style="endArrow=classic;html=1;rounded=0;entryX=0;entryY=0.5;entryDx=0;entryDy=0;" edge="1" parent="1" target="WQ6BeDETgpPeZFBW_CiG-9">
          <mxGeometry width="50" height="50" relative="1" as="geometry">
            <mxPoint x="210" y="220" as="sourcePoint" />
            <mxPoint x="260" y="170" as="targetPoint" />
          </mxGeometry>
        </mxCell>
        <mxCell id="WQ6BeDETgpPeZFBW_CiG-12" value="" style="endArrow=classic;html=1;rounded=0;entryX=0;entryY=0.5;entryDx=0;entryDy=0;" edge="1" parent="1" target="WQ6BeDETgpPeZFBW_CiG-10">
          <mxGeometry width="50" height="50" relative="1" as="geometry">
            <mxPoint x="360" y="220" as="sourcePoint" />
            <mxPoint x="410" y="170" as="targetPoint" />
          </mxGeometry>
        </mxCell>
        <mxCell id="WQ6BeDETgpPeZFBW_CiG-13" value="Users" style="rounded=0;whiteSpace=wrap;html=1;" vertex="1" parent="1">
          <mxGeometry x="90" y="300" width="120" height="60" as="geometry" />
        </mxCell>
        <mxCell id="WQ6BeDETgpPeZFBW_CiG-14" value="View Product" style="ellipse;whiteSpace=wrap;html=1;aspect=fixed;" vertex="1" parent="1">
          <mxGeometry x="280" y="290" width="80" height="80" as="geometry" />
        </mxCell>
        <mxCell id="WQ6BeDETgpPeZFBW_CiG-15" value="ProductTBL" style="shape=process;whiteSpace=wrap;html=1;backgroundOutline=1;" vertex="1" parent="1">
          <mxGeometry x="420" y="300" width="120" height="60" as="geometry" />
        </mxCell>
        <mxCell id="WQ6BeDETgpPeZFBW_CiG-16" value="" style="endArrow=classic;html=1;rounded=0;entryX=0;entryY=0.5;entryDx=0;entryDy=0;" edge="1" parent="1" target="WQ6BeDETgpPeZFBW_CiG-14">
          <mxGeometry width="50" height="50" relative="1" as="geometry">
            <mxPoint x="210" y="330" as="sourcePoint" />
            <mxPoint x="260" y="280" as="targetPoint" />
          </mxGeometry>
        </mxCell>
        <mxCell id="WQ6BeDETgpPeZFBW_CiG-17" value="" style="endArrow=classic;html=1;rounded=0;entryX=0;entryY=0.5;entryDx=0;entryDy=0;" edge="1" parent="1" target="WQ6BeDETgpPeZFBW_CiG-15">
          <mxGeometry width="50" height="50" relative="1" as="geometry">
            <mxPoint x="360" y="330" as="sourcePoint" />
            <mxPoint x="410" y="280" as="targetPoint" />
          </mxGeometry>
        </mxCell>
        <mxCell id="WQ6BeDETgpPeZFBW_CiG-18" value="Users" style="rounded=0;whiteSpace=wrap;html=1;" vertex="1" parent="1">
          <mxGeometry x="90" y="400" width="120" height="60" as="geometry" />
        </mxCell>
        <mxCell id="WQ6BeDETgpPeZFBW_CiG-19" value="Add To cart" style="ellipse;whiteSpace=wrap;html=1;aspect=fixed;" vertex="1" parent="1">
          <mxGeometry x="280" y="390" width="80" height="80" as="geometry" />
        </mxCell>
        <mxCell id="WQ6BeDETgpPeZFBW_CiG-20" value="CartTBL" style="shape=process;whiteSpace=wrap;html=1;backgroundOutline=1;" vertex="1" parent="1">
          <mxGeometry x="420" y="400" width="120" height="60" as="geometry" />
        </mxCell>
        <mxCell id="WQ6BeDETgpPeZFBW_CiG-21" value="" style="endArrow=classic;html=1;rounded=0;entryX=0;entryY=0.5;entryDx=0;entryDy=0;" edge="1" parent="1" target="WQ6BeDETgpPeZFBW_CiG-19">
          <mxGeometry width="50" height="50" relative="1" as="geometry">
            <mxPoint x="210" y="430" as="sourcePoint" />
            <mxPoint x="260" y="380" as="targetPoint" />
          </mxGeometry>
        </mxCell>
        <mxCell id="WQ6BeDETgpPeZFBW_CiG-22" value="" style="endArrow=classic;html=1;rounded=0;entryX=0;entryY=0.5;entryDx=0;entryDy=0;" edge="1" parent="1" target="WQ6BeDETgpPeZFBW_CiG-20">
          <mxGeometry width="50" height="50" relative="1" as="geometry">
            <mxPoint x="360" y="430" as="sourcePoint" />
            <mxPoint x="410" y="380" as="targetPoint" />
          </mxGeometry>
        </mxCell>
        <mxCell id="WQ6BeDETgpPeZFBW_CiG-28" value="Users" style="rounded=0;whiteSpace=wrap;html=1;" vertex="1" parent="1">
          <mxGeometry x="90" y="500" width="120" height="60" as="geometry" />
        </mxCell>
        <mxCell id="WQ6BeDETgpPeZFBW_CiG-29" value="Order" style="ellipse;whiteSpace=wrap;html=1;aspect=fixed;" vertex="1" parent="1">
          <mxGeometry x="280" y="490" width="80" height="80" as="geometry" />
        </mxCell>
        <mxCell id="WQ6BeDETgpPeZFBW_CiG-30" value="Order_paymentTBL" style="shape=process;whiteSpace=wrap;html=1;backgroundOutline=1;" vertex="1" parent="1">
          <mxGeometry x="630" y="500" width="120" height="60" as="geometry" />
        </mxCell>
        <mxCell id="WQ6BeDETgpPeZFBW_CiG-31" value="" style="endArrow=classic;html=1;rounded=0;entryX=0;entryY=0.5;entryDx=0;entryDy=0;" edge="1" parent="1" target="WQ6BeDETgpPeZFBW_CiG-29">
          <mxGeometry width="50" height="50" relative="1" as="geometry">
            <mxPoint x="210" y="530" as="sourcePoint" />
            <mxPoint x="260" y="480" as="targetPoint" />
          </mxGeometry>
        </mxCell>
        <mxCell id="WQ6BeDETgpPeZFBW_CiG-32" value="" style="endArrow=classic;html=1;rounded=0;entryX=0;entryY=0.5;entryDx=0;entryDy=0;" edge="1" parent="1" target="WQ6BeDETgpPeZFBW_CiG-30">
          <mxGeometry width="50" height="50" relative="1" as="geometry">
            <mxPoint x="360" y="530" as="sourcePoint" />
            <mxPoint x="410" y="480" as="targetPoint" />
          </mxGeometry>
        </mxCell>
        <mxCell id="WQ6BeDETgpPeZFBW_CiG-33" value="" style="endArrow=classic;html=1;rounded=0;" edge="1" parent="1">
          <mxGeometry width="50" height="50" relative="1" as="geometry">
            <mxPoint x="430" y="230" as="sourcePoint" />
            <mxPoint x="360" y="230" as="targetPoint" />
          </mxGeometry>
        </mxCell>
        <mxCell id="WQ6BeDETgpPeZFBW_CiG-34" value="" style="endArrow=classic;html=1;rounded=0;exitX=0.125;exitY=0.625;exitDx=0;exitDy=0;exitPerimeter=0;" edge="1" parent="1" source="WQ6BeDETgpPeZFBW_CiG-9">
          <mxGeometry width="50" height="50" relative="1" as="geometry">
            <mxPoint x="160" y="280" as="sourcePoint" />
            <mxPoint x="210" y="230" as="targetPoint" />
          </mxGeometry>
        </mxCell>
        <mxCell id="WQ6BeDETgpPeZFBW_CiG-35" value="Payment" style="ellipse;whiteSpace=wrap;html=1;aspect=fixed;" vertex="1" parent="1">
          <mxGeometry x="450" y="500" width="80" height="80" as="geometry" />
        </mxCell>
        <mxCell id="WQ6BeDETgpPeZFBW_CiG-37" value="1&#39;st level DFD for Users" style="text;html=1;align=center;verticalAlign=middle;whiteSpace=wrap;rounded=0;" vertex="1" parent="1">
          <mxGeometry x="160" y="600" width="300" height="30" as="geometry" />
        </mxCell>
        <mxCell id="WQ6BeDETgpPeZFBW_CiG-38" value="Sellar" style="rounded=0;whiteSpace=wrap;html=1;" vertex="1" parent="1">
          <mxGeometry x="130" y="770" width="120" height="60" as="geometry" />
        </mxCell>
        <mxCell id="WQ6BeDETgpPeZFBW_CiG-39" value="Rgister/login" style="ellipse;whiteSpace=wrap;html=1;aspect=fixed;" vertex="1" parent="1">
          <mxGeometry x="320" y="760" width="80" height="80" as="geometry" />
        </mxCell>
        <mxCell id="WQ6BeDETgpPeZFBW_CiG-40" value="SellaerTVL" style="shape=process;whiteSpace=wrap;html=1;backgroundOutline=1;" vertex="1" parent="1">
          <mxGeometry x="460" y="770" width="120" height="60" as="geometry" />
        </mxCell>
        <mxCell id="WQ6BeDETgpPeZFBW_CiG-41" value="" style="endArrow=classic;html=1;rounded=0;entryX=0;entryY=0.5;entryDx=0;entryDy=0;" edge="1" parent="1" target="WQ6BeDETgpPeZFBW_CiG-39">
          <mxGeometry width="50" height="50" relative="1" as="geometry">
            <mxPoint x="250" y="800" as="sourcePoint" />
            <mxPoint x="300" y="750" as="targetPoint" />
          </mxGeometry>
        </mxCell>
        <mxCell id="WQ6BeDETgpPeZFBW_CiG-42" value="" style="endArrow=classic;html=1;rounded=0;entryX=0;entryY=0.5;entryDx=0;entryDy=0;" edge="1" parent="1" target="WQ6BeDETgpPeZFBW_CiG-40">
          <mxGeometry width="50" height="50" relative="1" as="geometry">
            <mxPoint x="400" y="800" as="sourcePoint" />
            <mxPoint x="450" y="750" as="targetPoint" />
          </mxGeometry>
        </mxCell>
        <mxCell id="WQ6BeDETgpPeZFBW_CiG-43" value="Sellar" style="rounded=0;whiteSpace=wrap;html=1;" vertex="1" parent="1">
          <mxGeometry x="130" y="880" width="120" height="60" as="geometry" />
        </mxCell>
        <mxCell id="WQ6BeDETgpPeZFBW_CiG-44" value="Product Managemanet" style="ellipse;whiteSpace=wrap;html=1;aspect=fixed;" vertex="1" parent="1">
          <mxGeometry x="320" y="870" width="80" height="80" as="geometry" />
        </mxCell>
        <mxCell id="WQ6BeDETgpPeZFBW_CiG-45" value="ProductTBL" style="shape=process;whiteSpace=wrap;html=1;backgroundOutline=1;" vertex="1" parent="1">
          <mxGeometry x="460" y="880" width="120" height="60" as="geometry" />
        </mxCell>
        <mxCell id="WQ6BeDETgpPeZFBW_CiG-46" value="" style="endArrow=classic;html=1;rounded=0;entryX=0;entryY=0.5;entryDx=0;entryDy=0;" edge="1" parent="1" target="WQ6BeDETgpPeZFBW_CiG-44">
          <mxGeometry width="50" height="50" relative="1" as="geometry">
            <mxPoint x="250" y="910" as="sourcePoint" />
            <mxPoint x="300" y="860" as="targetPoint" />
          </mxGeometry>
        </mxCell>
        <mxCell id="WQ6BeDETgpPeZFBW_CiG-47" value="" style="endArrow=classic;html=1;rounded=0;entryX=0;entryY=0.5;entryDx=0;entryDy=0;" edge="1" parent="1" target="WQ6BeDETgpPeZFBW_CiG-45">
          <mxGeometry width="50" height="50" relative="1" as="geometry">
            <mxPoint x="400" y="910" as="sourcePoint" />
            <mxPoint x="450" y="860" as="targetPoint" />
          </mxGeometry>
        </mxCell>
        <mxCell id="WQ6BeDETgpPeZFBW_CiG-48" value="Users" style="rounded=0;whiteSpace=wrap;html=1;" vertex="1" parent="1">
          <mxGeometry x="130" y="980" width="120" height="60" as="geometry" />
        </mxCell>
        <mxCell id="WQ6BeDETgpPeZFBW_CiG-49" value="Order Management" style="ellipse;whiteSpace=wrap;html=1;aspect=fixed;" vertex="1" parent="1">
          <mxGeometry x="320" y="970" width="80" height="80" as="geometry" />
        </mxCell>
        <mxCell id="WQ6BeDETgpPeZFBW_CiG-50" value="Order" style="shape=process;whiteSpace=wrap;html=1;backgroundOutline=1;" vertex="1" parent="1">
          <mxGeometry x="460" y="980" width="120" height="60" as="geometry" />
        </mxCell>
        <mxCell id="WQ6BeDETgpPeZFBW_CiG-51" value="" style="endArrow=classic;html=1;rounded=0;entryX=0;entryY=0.5;entryDx=0;entryDy=0;" edge="1" parent="1" target="WQ6BeDETgpPeZFBW_CiG-49">
          <mxGeometry width="50" height="50" relative="1" as="geometry">
            <mxPoint x="250" y="1010" as="sourcePoint" />
            <mxPoint x="300" y="960" as="targetPoint" />
          </mxGeometry>
        </mxCell>
        <mxCell id="WQ6BeDETgpPeZFBW_CiG-52" value="" style="endArrow=classic;html=1;rounded=0;entryX=0;entryY=0.5;entryDx=0;entryDy=0;" edge="1" parent="1" target="WQ6BeDETgpPeZFBW_CiG-50">
          <mxGeometry width="50" height="50" relative="1" as="geometry">
            <mxPoint x="400" y="1010" as="sourcePoint" />
            <mxPoint x="450" y="960" as="targetPoint" />
          </mxGeometry>
        </mxCell>
        <mxCell id="WQ6BeDETgpPeZFBW_CiG-57" value="" style="endArrow=classic;html=1;rounded=0;" edge="1" parent="1">
          <mxGeometry width="50" height="50" relative="1" as="geometry">
            <mxPoint x="470" y="810" as="sourcePoint" />
            <mxPoint x="400" y="810" as="targetPoint" />
          </mxGeometry>
        </mxCell>
        <mxCell id="WQ6BeDETgpPeZFBW_CiG-58" value="" style="endArrow=classic;html=1;rounded=0;exitX=0.125;exitY=0.625;exitDx=0;exitDy=0;exitPerimeter=0;" edge="1" parent="1" source="WQ6BeDETgpPeZFBW_CiG-39">
          <mxGeometry width="50" height="50" relative="1" as="geometry">
            <mxPoint x="200" y="860" as="sourcePoint" />
            <mxPoint x="250" y="810" as="targetPoint" />
          </mxGeometry>
        </mxCell>
        <mxCell id="WQ6BeDETgpPeZFBW_CiG-59" value="Simple Flow chart" style="text;html=1;align=center;verticalAlign=middle;whiteSpace=wrap;rounded=0;" vertex="1" parent="1">
          <mxGeometry x="100" y="1090" width="420" height="30" as="geometry" />
        </mxCell>
        <mxCell id="WQ6BeDETgpPeZFBW_CiG-60" value="start" style="ellipse;whiteSpace=wrap;html=1;aspect=fixed;" vertex="1" parent="1">
          <mxGeometry x="340" y="1120" width="40" height="40" as="geometry" />
        </mxCell>
        <mxCell id="WQ6BeDETgpPeZFBW_CiG-61" value="enter num1+num2" style="rounded=0;whiteSpace=wrap;html=1;" vertex="1" parent="1">
          <mxGeometry x="305" y="1200" width="120" height="60" as="geometry" />
        </mxCell>
        <mxCell id="WQ6BeDETgpPeZFBW_CiG-62" value="num3= num1+num2" style="rounded=0;whiteSpace=wrap;html=1;" vertex="1" parent="1">
          <mxGeometry x="305" y="1290" width="120" height="60" as="geometry" />
        </mxCell>
        <mxCell id="WQ6BeDETgpPeZFBW_CiG-63" value="Print num3" style="rounded=0;whiteSpace=wrap;html=1;" vertex="1" parent="1">
          <mxGeometry x="305" y="1390" width="120" height="60" as="geometry" />
        </mxCell>
        <mxCell id="WQ6BeDETgpPeZFBW_CiG-64" value="End" style="ellipse;whiteSpace=wrap;html=1;aspect=fixed;" vertex="1" parent="1">
          <mxGeometry x="340" y="1490" width="40" height="40" as="geometry" />
        </mxCell>
        <mxCell id="WQ6BeDETgpPeZFBW_CiG-65" value="" style="endArrow=classic;html=1;rounded=0;entryX=0.442;entryY=0.05;entryDx=0;entryDy=0;entryPerimeter=0;" edge="1" parent="1" target="WQ6BeDETgpPeZFBW_CiG-61">
          <mxGeometry width="50" height="50" relative="1" as="geometry">
            <mxPoint x="360" y="1160" as="sourcePoint" />
            <mxPoint x="410" y="1110" as="targetPoint" />
          </mxGeometry>
        </mxCell>
        <mxCell id="WQ6BeDETgpPeZFBW_CiG-67" value="" style="endArrow=classic;html=1;rounded=0;" edge="1" parent="1" target="WQ6BeDETgpPeZFBW_CiG-62">
          <mxGeometry width="50" height="50" relative="1" as="geometry">
            <mxPoint x="360" y="1260" as="sourcePoint" />
            <mxPoint x="410" y="1210" as="targetPoint" />
          </mxGeometry>
        </mxCell>
        <mxCell id="WQ6BeDETgpPeZFBW_CiG-68" value="" style="endArrow=classic;html=1;rounded=0;entryX=0.442;entryY=0.083;entryDx=0;entryDy=0;entryPerimeter=0;" edge="1" parent="1" target="WQ6BeDETgpPeZFBW_CiG-63">
          <mxGeometry width="50" height="50" relative="1" as="geometry">
            <mxPoint x="360" y="1350" as="sourcePoint" />
            <mxPoint x="410" y="1300" as="targetPoint" />
          </mxGeometry>
        </mxCell>
        <mxCell id="WQ6BeDETgpPeZFBW_CiG-69" value="" style="endArrow=classic;html=1;rounded=0;" edge="1" parent="1">
          <mxGeometry width="50" height="50" relative="1" as="geometry">
            <mxPoint x="360" y="1450" as="sourcePoint" />
            <mxPoint x="360" y="1500" as="targetPoint" />
          </mxGeometry>
        </mxCell>
        <mxCell id="WQ6BeDETgpPeZFBW_CiG-70" value="Conditional flow chart" style="text;html=1;align=center;verticalAlign=middle;whiteSpace=wrap;rounded=0;" vertex="1" parent="1">
          <mxGeometry x="170" y="1560" width="340" height="30" as="geometry" />
        </mxCell>
        <mxCell id="WQ6BeDETgpPeZFBW_CiG-73" value="" style="edgeStyle=orthogonalEdgeStyle;rounded=0;orthogonalLoop=1;jettySize=auto;html=1;" edge="1" parent="1" source="WQ6BeDETgpPeZFBW_CiG-71" target="WQ6BeDETgpPeZFBW_CiG-72">
          <mxGeometry relative="1" as="geometry" />
        </mxCell>
        <mxCell id="WQ6BeDETgpPeZFBW_CiG-71" value="Start" style="ellipse;whiteSpace=wrap;html=1;aspect=fixed;" vertex="1" parent="1">
          <mxGeometry x="340" y="1620" width="40" height="40" as="geometry" />
        </mxCell>
        <mxCell id="WQ6BeDETgpPeZFBW_CiG-75" value="" style="edgeStyle=orthogonalEdgeStyle;rounded=0;orthogonalLoop=1;jettySize=auto;html=1;" edge="1" parent="1" source="WQ6BeDETgpPeZFBW_CiG-72" target="WQ6BeDETgpPeZFBW_CiG-74">
          <mxGeometry relative="1" as="geometry" />
        </mxCell>
        <mxCell id="WQ6BeDETgpPeZFBW_CiG-72" value="Enter num" style="whiteSpace=wrap;html=1;" vertex="1" parent="1">
          <mxGeometry x="300" y="1730" width="120" height="60" as="geometry" />
        </mxCell>
        <mxCell id="WQ6BeDETgpPeZFBW_CiG-77" value="" style="edgeStyle=orthogonalEdgeStyle;rounded=0;orthogonalLoop=1;jettySize=auto;html=1;exitX=0;exitY=0.5;exitDx=0;exitDy=0;" edge="1" parent="1" source="WQ6BeDETgpPeZFBW_CiG-74">
          <mxGeometry relative="1" as="geometry">
            <mxPoint x="260" y="1870" as="sourcePoint" />
            <mxPoint x="200" y="1930" as="targetPoint" />
            <Array as="points">
              <mxPoint x="230" y="1900" />
              <mxPoint x="230" y="1930" />
            </Array>
          </mxGeometry>
        </mxCell>
        <mxCell id="WQ6BeDETgpPeZFBW_CiG-82" value="true" style="edgeLabel;html=1;align=center;verticalAlign=middle;resizable=0;points=[];" vertex="1" connectable="0" parent="WQ6BeDETgpPeZFBW_CiG-77">
          <mxGeometry x="-0.32" y="-3" relative="1" as="geometry">
            <mxPoint as="offset" />
          </mxGeometry>
        </mxCell>
        <mxCell id="WQ6BeDETgpPeZFBW_CiG-79" value="" style="edgeStyle=orthogonalEdgeStyle;rounded=0;orthogonalLoop=1;jettySize=auto;html=1;" edge="1" parent="1" source="WQ6BeDETgpPeZFBW_CiG-74" target="WQ6BeDETgpPeZFBW_CiG-78">
          <mxGeometry relative="1" as="geometry">
            <Array as="points">
              <mxPoint x="550" y="1900" />
            </Array>
          </mxGeometry>
        </mxCell>
        <mxCell id="WQ6BeDETgpPeZFBW_CiG-83" value="false" style="edgeLabel;html=1;align=center;verticalAlign=middle;resizable=0;points=[];" vertex="1" connectable="0" parent="WQ6BeDETgpPeZFBW_CiG-79">
          <mxGeometry x="-0.2889" y="3" relative="1" as="geometry">
            <mxPoint as="offset" />
          </mxGeometry>
        </mxCell>
        <mxCell id="WQ6BeDETgpPeZFBW_CiG-74" value="num%2==0" style="rhombus;whiteSpace=wrap;html=1;" vertex="1" parent="1">
          <mxGeometry x="320" y="1860" width="80" height="80" as="geometry" />
        </mxCell>
        <mxCell id="WQ6BeDETgpPeZFBW_CiG-76" value="printf Even" style="whiteSpace=wrap;html=1;" vertex="1" parent="1">
          <mxGeometry x="140" y="1930" width="120" height="60" as="geometry" />
        </mxCell>
        <mxCell id="WQ6BeDETgpPeZFBW_CiG-78" value="printf odd" style="whiteSpace=wrap;html=1;" vertex="1" parent="1">
          <mxGeometry x="490" y="1930" width="120" height="60" as="geometry" />
        </mxCell>
        <mxCell id="WQ6BeDETgpPeZFBW_CiG-84" value="" style="endArrow=classic;html=1;rounded=0;entryX=0;entryY=0;entryDx=0;entryDy=0;" edge="1" parent="1" target="WQ6BeDETgpPeZFBW_CiG-87">
          <mxGeometry width="50" height="50" relative="1" as="geometry">
            <mxPoint x="200" y="1990" as="sourcePoint" />
            <mxPoint x="317.03999999999996" y="2124" as="targetPoint" />
          </mxGeometry>
        </mxCell>
        <mxCell id="WQ6BeDETgpPeZFBW_CiG-85" value="" style="endArrow=classic;html=1;rounded=0;entryX=1;entryY=0;entryDx=0;entryDy=0;" edge="1" parent="1" target="WQ6BeDETgpPeZFBW_CiG-87">
          <mxGeometry width="50" height="50" relative="1" as="geometry">
            <mxPoint x="550" y="1990" as="sourcePoint" />
            <mxPoint x="388.2842712474619" y="2101.715728752538" as="targetPoint" />
          </mxGeometry>
        </mxCell>
        <mxCell id="WQ6BeDETgpPeZFBW_CiG-87" value="Start" style="ellipse;whiteSpace=wrap;html=1;aspect=fixed;" vertex="1" parent="1">
          <mxGeometry x="330" y="2080" width="40" height="40" as="geometry" />
        </mxCell>
        <mxCell id="WQ6BeDETgpPeZFBW_CiG-88" value="Iteration flow chart" style="text;html=1;align=center;verticalAlign=middle;whiteSpace=wrap;rounded=0;" vertex="1" parent="1">
          <mxGeometry x="140" y="2120" width="305" height="30" as="geometry" />
        </mxCell>
        <mxCell id="WQ6BeDETgpPeZFBW_CiG-92" value="" style="edgeStyle=orthogonalEdgeStyle;rounded=0;orthogonalLoop=1;jettySize=auto;html=1;" edge="1" parent="1" source="WQ6BeDETgpPeZFBW_CiG-90" target="WQ6BeDETgpPeZFBW_CiG-91">
          <mxGeometry relative="1" as="geometry" />
        </mxCell>
        <mxCell id="WQ6BeDETgpPeZFBW_CiG-90" value="Start" style="ellipse;whiteSpace=wrap;html=1;aspect=fixed;" vertex="1" parent="1">
          <mxGeometry x="320" y="2160" width="40" height="40" as="geometry" />
        </mxCell>
        <mxCell id="WQ6BeDETgpPeZFBW_CiG-94" value="" style="edgeStyle=orthogonalEdgeStyle;rounded=0;orthogonalLoop=1;jettySize=auto;html=1;" edge="1" parent="1" source="WQ6BeDETgpPeZFBW_CiG-91" target="WQ6BeDETgpPeZFBW_CiG-93">
          <mxGeometry relative="1" as="geometry" />
        </mxCell>
        <mxCell id="WQ6BeDETgpPeZFBW_CiG-91" value="I=1" style="whiteSpace=wrap;html=1;" vertex="1" parent="1">
          <mxGeometry x="280" y="2270" width="120" height="60" as="geometry" />
        </mxCell>
        <mxCell id="WQ6BeDETgpPeZFBW_CiG-98" value="" style="edgeStyle=orthogonalEdgeStyle;rounded=0;orthogonalLoop=1;jettySize=auto;html=1;" edge="1" parent="1" source="WQ6BeDETgpPeZFBW_CiG-93" target="WQ6BeDETgpPeZFBW_CiG-97">
          <mxGeometry relative="1" as="geometry" />
        </mxCell>
        <mxCell id="WQ6BeDETgpPeZFBW_CiG-99" value="true" style="edgeLabel;html=1;align=center;verticalAlign=middle;resizable=0;points=[];" vertex="1" connectable="0" parent="WQ6BeDETgpPeZFBW_CiG-98">
          <mxGeometry x="-0.1333" y="-3" relative="1" as="geometry">
            <mxPoint as="offset" />
          </mxGeometry>
        </mxCell>
        <mxCell id="WQ6BeDETgpPeZFBW_CiG-93" value="i&amp;lt;=10" style="rhombus;whiteSpace=wrap;html=1;" vertex="1" parent="1">
          <mxGeometry x="300" y="2400" width="80" height="80" as="geometry" />
        </mxCell>
        <mxCell id="WQ6BeDETgpPeZFBW_CiG-97" value="print i&lt;div&gt;i++&lt;/div&gt;" style="whiteSpace=wrap;html=1;" vertex="1" parent="1">
          <mxGeometry x="280" y="2570" width="120" height="60" as="geometry" />
        </mxCell>
        <mxCell id="WQ6BeDETgpPeZFBW_CiG-100" value="" style="endArrow=classic;html=1;rounded=0;entryX=0;entryY=0.5;entryDx=0;entryDy=0;exitX=0;exitY=0.5;exitDx=0;exitDy=0;" edge="1" parent="1" source="WQ6BeDETgpPeZFBW_CiG-97" target="WQ6BeDETgpPeZFBW_CiG-93">
          <mxGeometry width="50" height="50" relative="1" as="geometry">
            <mxPoint x="260" y="2490" as="sourcePoint" />
            <mxPoint x="310" y="2440" as="targetPoint" />
            <Array as="points">
              <mxPoint x="160" y="2600" />
              <mxPoint x="160" y="2440" />
            </Array>
          </mxGeometry>
        </mxCell>
        <mxCell id="WQ6BeDETgpPeZFBW_CiG-101" value="" style="endArrow=classic;html=1;rounded=0;" edge="1" parent="1">
          <mxGeometry width="50" height="50" relative="1" as="geometry">
            <mxPoint x="380" y="2440" as="sourcePoint" />
            <mxPoint x="350" y="2720" as="targetPoint" />
            <Array as="points">
              <mxPoint x="520" y="2440" />
              <mxPoint x="520" y="2720" />
            </Array>
          </mxGeometry>
        </mxCell>
        <mxCell id="WQ6BeDETgpPeZFBW_CiG-103" value="false" style="edgeLabel;html=1;align=center;verticalAlign=middle;resizable=0;points=[];" vertex="1" connectable="0" parent="WQ6BeDETgpPeZFBW_CiG-101">
          <mxGeometry x="-0.2915" y="-1" relative="1" as="geometry">
            <mxPoint as="offset" />
          </mxGeometry>
        </mxCell>
        <mxCell id="WQ6BeDETgpPeZFBW_CiG-102" value="End" style="ellipse;whiteSpace=wrap;html=1;aspect=fixed;" vertex="1" parent="1">
          <mxGeometry x="340" y="2710" width="40" height="40" as="geometry" />
        </mxCell>
      </root>
    </mxGraphModel>
  </diagram>
</mxfile>
